<?xml version="1.0" standalone="no"?>
<!DOCTYPE svg PUBLIC "-//W3C//DTD SVG 20010904//EN"
 "http://www.w3.org/TR/2001/REC-SVG-20010904/DTD/svg10.dtd">
<svg version="1.0" xmlns="http://www.w3.org/2000/svg"
 width="160.000000pt" height="160.000000pt" viewBox="0 0 160.000000 160.000000"
 preserveAspectRatio="xMidYMid meet">
<metadata>
Created by potrace 1.16, written by Peter Selinger 2001-2019
</metadata>
<g transform="translate(0.000000,160.000000) scale(0.031873,-0.074074)"
fill="#000000" stroke="none">
<path d="M0 1080 l0 -1080 2510 0 2510 0 0 1080 0 1080 -2510 0 -2510 0 0
-1080z m3718 543 c44 -39 39 -56 -44 -145 l-78 -83 30 -6 c16 -4 76 -7 134 -9
58 -1 114 -5 124 -9 16 -6 14 -9 -15 -21 -19 -8 -37 -18 -41 -24 -8 -12 -122
-25 -230 -25 l-76 -1 -57 -110 c-72 -143 -98 -212 -142 -384 -40 -162 -55
-196 -84 -196 -34 0 -41 41 -24 144 30 172 75 325 135 454 l39 82 -67 0 c-37
0 -72 4 -78 8 -7 4 -14 23 -17 43 l-5 37 109 4 c118 4 122 5 172 78 28 41 169
180 183 180 6 0 21 -8 32 -17z m-2593 -94 c89 -18 200 -60 249 -96 63 -46 76
-79 76 -202 0 -99 0 -100 30 -121 51 -37 60 -66 60 -201 0 -105 -3 -126 -20
-154 -20 -32 -84 -80 -142 -106 -26 -12 -28 -16 -28 -78 0 -81 -21 -119 -87
-161 -108 -69 -247 -100 -439 -101 -220 0 -398 52 -478 141 l-36 40 0 131 c0
145 8 171 63 213 18 14 54 35 80 46 46 20 47 22 47 66 0 40 -5 49 -45 87 l-45
44 0 145 0 145 36 37 c64 65 195 116 355 135 81 10 245 5 324 -10z m1957 -109
c56 -16 63 -38 40 -118 -11 -37 -25 -93 -32 -124 -12 -59 -29 -75 -65 -62 -15
6 -17 16 -11 73 3 36 9 79 12 95 l7 29 -32 -19 c-88 -51 -299 -267 -359 -366
-47 -78 -59 -115 -46 -136 14 -22 85 -28 139 -12 44 13 167 83 186 106 20 25
28 15 17 -23 -13 -51 -70 -107 -142 -143 -90 -46 -168 -39 -230 18 -35 33 -56
80 -56 127 0 37 40 128 62 142 7 4 19 20 27 35 13 26 222 239 271 276 40 31
163 112 169 112 3 0 23 -5 43 -10z m1703 -20 c36 -14 45 -26 45 -66 0 -42 -49
-136 -80 -152 -15 -8 -44 -11 -72 -8 -57 6 -56 7 -32 -110 20 -98 15 -174 -17
-244 -53 -115 -155 -174 -242 -141 -25 10 -77 87 -77 114 0 9 5 17 11 19 5 2
11 11 13 20 2 19 47 58 66 58 13 0 10 -56 -4 -90 -4 -9 -1 -24 7 -33 12 -17
15 -16 54 12 45 33 86 107 104 190 9 41 7 66 -11 147 -29 136 -22 174 44 240
48 48 54 51 107 53 30 1 68 -3 84 -9z m-576 -99 c20 -15 46 -31 59 -35 12 -4
27 -17 33 -28 10 -18 2 -41 -54 -152 -37 -72 -75 -153 -85 -181 -28 -73 -45
-179 -38 -229 5 -28 3 -47 -4 -51 -18 -11 -61 24 -77 63 -19 46 -13 176 12
242 27 72 34 100 26 100 -4 0 -47 -44 -95 -97 -97 -109 -160 -163 -187 -163
-28 0 -78 48 -88 85 -14 52 22 157 68 199 12 11 21 25 21 31 0 7 7 15 15 19 8
3 15 9 15 14 0 12 151 162 182 181 26 16 76 28 127 30 23 1 45 -8 70 -28z
m-1841 -105 c15 -8 36 -23 46 -35 19 -20 19 -22 -4 -83 -13 -35 -52 -151 -88
-258 -73 -223 -83 -244 -111 -248 -16 -3 -22 5 -32 38 -14 46 -1 172 25 253
35 109 35 109 -66 11 -170 -166 -251 -203 -329 -150 -77 53 -89 140 -34 254
33 69 36 72 69 72 25 0 40 -7 55 -26 19 -25 20 -28 4 -62 -64 -147 -72 -172
-55 -172 28 0 149 104 292 251 93 96 173 169 183 169 10 0 30 -6 45 -14z"/>
<path d="M793 1490 c-134 -19 -228 -52 -300 -107 -87 -65 -4 -155 192 -208 92
-25 310 -31 422 -11 160 28 293 100 293 158 0 55 -135 132 -280 158 -79 15
-255 20 -327 10z"/>
<path d="M1407 1045 c-36 -43 -126 -88 -237 -117 -72 -19 -110 -22 -245 -22
-137 1 -173 4 -252 25 -99 27 -108 17 -24 -26 217 -109 661 -85 802 42 23 21
39 44 39 58 0 22 -35 76 -48 74 -4 0 -20 -16 -35 -34z"/>
<path d="M440 819 c-58 -35 -80 -60 -80 -92 0 -66 132 -135 311 -161 125 -19
184 -20 299 -5 118 14 125 29 14 29 -157 0 -333 49 -421 116 -38 29 -63 72
-63 109 0 30 -14 32 -60 4z"/>
<path d="M4076 1238 c-121 -95 -216 -198 -257 -280 -32 -63 -33 -68 -20 -68
15 0 351 340 351 355 0 23 -42 18 -74 -7z"/>
</g>
</svg>
