<?xml version="1.0" standalone="no"?>
<!DOCTYPE svg PUBLIC "-//W3C//DTD SVG 20010904//EN"
 "http://www.w3.org/TR/2001/REC-SVG-20010904/DTD/svg10.dtd">
<svg version="1.0" xmlns="http://www.w3.org/2000/svg"
 width="159.000000pt" height="160.000000pt" viewBox="0 0 159.000000 160.000000"
 preserveAspectRatio="xMidYMid meet">
<metadata>
Created by potrace 1.16, written by Peter Selinger 2001-2019
</metadata>
<g transform="translate(0.000000,160.000000) scale(0.031673,-0.074074)"
fill="#000000" stroke="none">
<path d="M770 1550 c-25 -4 -55 -11 -67 -14 -13 -3 -33 -8 -45 -11 -104 -23
-215 -85 -245 -138 -15 -27 -18 -53 -15 -175 l3 -143 40 -40 c33 -33 39 -45
38 -81 0 -42 -1 -43 -61 -73 -35 -17 -74 -46 -92 -68 -30 -38 -31 -41 -34
-162 -3 -108 -1 -127 17 -163 35 -68 119 -120 248 -153 42 -10 86 -19 97 -18
12 0 -17 9 -64 20 -108 24 -198 68 -244 119 l-36 40 0 131 c0 145 8 171 63
213 18 14 54 35 80 46 46 20 47 22 47 66 0 40 -5 49 -45 87 l-45 44 0 145 0
145 36 37 c65 67 206 120 351 133 40 3 70 10 67 14 -6 10 -29 10 -94 -1z"/>
<path d="M985 1550 c-4 -6 10 -10 39 -10 102 0 276 -53 350 -107 63 -46 76
-79 76 -202 0 -99 0 -100 30 -121 51 -37 60 -66 60 -201 0 -105 -3 -126 -20
-154 -20 -32 -84 -80 -142 -106 -26 -12 -28 -16 -28 -78 0 -81 -21 -119 -87
-161 -89 -57 -190 -86 -343 -99 -80 -8 -81 -8 -25 -10 117 -2 285 42 373 99
74 49 97 90 95 167 l-2 63 49 25 c121 61 150 111 150 254 0 117 -13 160 -65
208 l-35 32 0 102 c0 88 -3 107 -21 134 -41 60 -162 127 -254 141 -22 4 -47
10 -55 14 -28 14 -138 21 -145 10z"/>
<path d="M793 1490 c-134 -19 -228 -52 -300 -107 -87 -65 -4 -155 192 -208 60
-17 377 -34 364 -21 -4 4 -58 7 -119 7 -144 1 -242 18 -340 59 -59 25 -106 62
-116 92 -24 75 168 153 411 167 235 13 495 -68 495 -156 0 -57 -133 -128 -279
-149 -42 -5 -54 -14 -20 -14 40 0 141 27 200 54 64 28 119 78 119 108 0 55
-135 132 -280 158 -79 15 -255 20 -327 10z"/>
<path d="M2945 1388 c-100 -66 -347 -310 -403 -398 -23 -36 -45 -80 -48 -98
-8 -40 18 -116 52 -152 33 -35 81 -63 89 -50 3 5 -1 10 -9 10 -23 0 -87 61
-102 97 -8 18 -14 48 -14 68 0 37 40 128 62 142 7 4 19 20 27 35 19 38 235
249 306 301 117 84 129 89 174 77 59 -16 67 -37 43 -118 -11 -37 -25 -93 -32
-124 -12 -59 -29 -75 -65 -62 -15 6 -17 16 -11 73 3 36 9 79 12 95 l7 29 -32
-19 c-88 -51 -299 -267 -359 -366 -47 -78 -59 -115 -46 -136 14 -22 85 -28
139 -12 44 13 167 83 186 106 21 25 27 15 17 -26 -19 -75 -134 -157 -238 -170
l-55 -7 50 -2 c63 -1 133 30 198 90 39 35 51 53 57 89 11 57 0 68 -36 37 -79
-66 -227 -126 -279 -113 -61 15 -6 125 146 294 89 99 214 210 225 200 2 -3 0
-38 -7 -78 -12 -78 -10 -83 39 -96 15 -4 29 -1 40 10 15 15 71 209 72 252 0
31 -44 66 -88 71 -32 3 -50 -4 -117 -49z"/>
<path d="M4597 1381 c-78 -72 -94 -142 -61 -266 21 -82 14 -170 -21 -240 -24
-51 -88 -115 -101 -102 -3 3 -1 21 4 41 11 39 3 87 -16 94 -21 7 -102 -82
-102 -112 0 -36 44 -102 83 -126 83 -51 217 33 268 169 18 48 20 69 15 146 -4
50 -9 109 -12 131 l-6 41 48 1 c53 1 92 30 123 92 40 78 34 136 -15 159 -28
13 -144 15 -144 3 0 -4 16 -6 35 -4 125 15 165 -45 108 -159 -34 -65 -61 -82
-125 -75 -57 6 -56 7 -32 -110 20 -98 15 -174 -17 -244 -53 -115 -155 -174
-242 -141 -25 10 -77 87 -77 114 0 9 5 17 11 19 5 2 11 11 13 20 2 19 47 58
66 58 13 0 10 -56 -4 -90 -4 -9 -1 -24 7 -33 12 -17 15 -16 54 12 45 33 86
107 104 190 9 41 7 66 -11 147 -30 138 -23 173 46 243 64 65 65 80 1 22z"/>
<path d="M4150 1333 c13 -3 40 -17 60 -33 19 -15 45 -30 58 -34 12 -4 27 -17
33 -28 10 -18 2 -41 -54 -152 -37 -72 -75 -153 -85 -181 -28 -73 -45 -179 -38
-229 5 -28 3 -47 -4 -51 -18 -11 -61 24 -77 63 -19 46 -13 176 12 242 27 72
34 100 26 100 -4 0 -47 -44 -95 -97 -99 -111 -160 -163 -188 -163 -27 0 -88
63 -88 91 0 17 -3 20 -11 12 -22 -22 43 -108 86 -114 38 -5 64 12 159 112 54
56 99 99 102 97 2 -3 -5 -43 -17 -89 -18 -72 -20 -92 -11 -143 12 -63 52 -126
80 -126 38 0 45 15 43 96 -2 104 21 180 110 356 38 76 69 147 69 158 0 23 -15
38 -87 86 -32 20 -64 33 -80 33 -27 -2 -27 -2 -3 -6z"/>
<path d="M4076 1238 c-121 -95 -216 -198 -257 -280 -32 -63 -33 -68 -20 -68
15 0 351 340 351 355 0 23 -42 18 -74 -7z m-101 -162 c-85 -86 -155 -154 -155
-150 0 23 71 123 132 186 73 75 170 147 176 129 2 -5 -67 -79 -153 -165z"/>
<path d="M2131 1053 c-160 -164 -237 -233 -260 -233 -15 0 -15 -1 24 89 19 43
35 84 35 89 0 23 -43 62 -76 68 -45 8 -59 -6 -103 -104 -37 -81 -38 -119 -6
-186 22 -47 85 -90 129 -89 62 2 151 58 265 167 39 38 61 53 57 41 -23 -79
-36 -160 -36 -222 0 -62 3 -76 24 -100 19 -22 28 -26 41 -18 26 16 52 73 80
175 14 52 51 160 81 240 30 79 54 154 54 165 0 34 -52 76 -101 82 l-42 6 -166
-170z m237 143 c15 -8 36 -23 46 -35 19 -20 19 -22 -4 -83 -13 -35 -52 -151
-88 -258 -73 -223 -83 -244 -111 -248 -16 -3 -22 5 -32 38 -14 46 -1 172 25
253 35 109 35 109 -66 11 -170 -166 -251 -203 -329 -150 -77 53 -89 140 -34
254 33 69 36 72 69 72 25 0 40 -7 55 -26 19 -25 20 -28 4 -62 -64 -147 -72
-172 -55 -172 28 0 149 104 292 251 93 96 173 169 183 169 10 0 30 -6 45 -14z"/>
<path d="M1407 1045 c-35 -42 -127 -88 -226 -113 -41 -11 -70 -22 -65 -25 27
-16 203 51 273 104 58 44 81 45 81 1 0 -78 -167 -147 -388 -159 -59 -3 -114
-10 -122 -15 -22 -13 191 -1 270 16 145 31 260 98 260 151 0 22 -35 76 -48 74
-4 0 -20 -16 -35 -34z"/>
<path d="M440 819 c-88 -53 -104 -99 -50 -149 38 -36 159 -86 225 -94 56 -7
34 8 -25 17 -74 10 -204 82 -215 118 -9 26 9 55 53 84 43 29 52 31 52 9 0 -26
52 -90 100 -123 61 -42 130 -65 290 -96 8 -2 35 -4 60 -5 39 -2 42 -3 20 -11
-17 -6 -5 -7 40 -4 102 8 98 25 -6 25 -157 0 -333 49 -421 116 -38 29 -63 72
-63 109 0 30 -14 32 -60 4z"/>
</g>
</svg>
